<svg width="32" height="32" viewBox="0 0 32 32" fill="none" xmlns="http://www.w3.org/2000/svg">
  <rect width="32" height="32" rx="12" fill="#10b981"/>
  <path d="M16 5.33333C10.85 5.33333 6.66667 9.51667 6.66667 14.6667C6.66667 19.8167 10.85 24 16 24C21.15 24 25.3333 19.8167 25.3333 14.6667C25.3333 9.51667 21.15 5.33333 16 5.33333ZM16 21.3333C12.32 21.3333 9.33333 18.3467 9.33333 14.6667C9.33333 10.9867 12.32 8 16 8C19.68 8 22.6667 10.9867 22.6667 14.6667C22.6667 18.3467 19.68 21.3333 16 21.3333Z" fill="white"/>
  <path d="M16 10.6667C14.46 10.6667 13.3333 11.7933 13.3333 13.3333C13.3333 14.8733 14.46 16 16 16C17.54 16 18.6667 14.8733 18.6667 13.3333C18.6667 11.7933 17.54 10.6667 16 10.6667ZM16 14.6667C15.26 14.6667 14.6667 14.0733 14.6667 13.3333C14.6667 12.5933 15.26 12 16 12C16.74 12 17.3333 12.5933 17.3333 13.3333C17.3333 14.0733 16.74 14.6667 16 14.6667Z" fill="white"/>
  <circle cx="16" cy="13.3333" r="1.33333" fill="white"/>
</svg>

